<?xml version="1.0" encoding="utf-8"?>
<!-- Generator: Adobe Illustrator 25.1.0, SVG Export Plug-In . SVG Version: 6.00 Build 0)  -->
<svg version="1.1" id="Layer_1" xmlns="http://www.w3.org/2000/svg" xmlns:xlink="http://www.w3.org/1999/xlink" x="0px" y="0px"
	 viewBox="0 0 62 80.9" style="enable-background:new 0 0 62 80.9;" xml:space="preserve">
<style type="text/css">
	.st0{fill:#FFFFFF;}
</style>
<g>
	<path class="st0" d="M45.3,69.6c4.3-3.9,5.2-9.6,6.1-14.3c7.6-3.9,4.3-14.5,4.5-21.5c4.5-21.9-23.4-35-39.6-22
		c-10.8,11-11.6,31-2.4,43C10.9,72.2,33.8,81.1,45.3,69.6z M50.4,52.5c-1.6-0.1-4.6,3.3-5.4,1.7C44,49.4,56.8,48.6,50.4,52.5z
		 M13.9,46.6c-4.1-1.7,0-6.2-1.8-9.3c-1.5-5.5-1.4-10.9,0.7-16.2c5.8-17.9,38.2-14.7,40.4,3.7c1.5,36,3.1,12.2-11.6,28.7
		C10.9,56.3,35.1,50.7,13.9,46.6z M16.5,52.2c-5.3-4.5,5.8-2.7,5.4,1C22.1,56.8,17.8,53.3,16.5,52.2z M22.9,68.8
		c-5.3-1.8-4.8-7.4-5.2-12c0.8-0.8,2.4,0.3,3.4,0.4c3.3,7.2,13.3,3.6,19.9,4.2c3.6-0.3,3-4.7,6.6-4.9C52.4,69.1,31.4,73.9,22.9,68.8
		z"/>
	<path class="st0" d="M19.9,44.3C9,43,13.3,25.6,23.9,28.3C33.9,30.3,28.4,44.8,19.9,44.3z"/>
	<path class="st0" d="M53.1,36.5c1,10.8-19.1,5.1-15.4-3.7C40.2,24.5,53.7,27.4,53.1,36.5z"/>
	<path class="st0" d="M39.1,44.9c0,3.6-3.1,4.9-5.9,4.3C21,51,34.2,25,39.1,44.9z"/>
</g>
</svg>
